<svg width="247" height="47" viewBox="0 0 247 47" fill="none" xmlns="http://www.w3.org/2000/svg">
<path fill-rule="evenodd" clip-rule="evenodd" d="M246.301 31.9222C240.72 35.4189 235.643 42.1432 229.928 44.2614C224.212 46.3796 218.363 47.1192 213.219 46.9847C208.075 46.8502 203.637 45.8416 198.762 43.0174C193.888 40.1932 188.072 32.3257 183.802 27.8876C179.532 23.4496 176.305 19.2132 173.918 16.9269C171.531 14.6406 169.984 14.3046 168.471 14.1028C166.959 13.9011 165.479 13.8338 164 13.7666C169.581 10.2699 174.859 4.85682 180.574 2.7386C186.29 0.620375 192.14 -0.119193 197.283 0.0152982C202.427 0.149797 206.865 1.15836 211.74 3.9826C216.615 6.80684 222.229 13.3631 226.499 17.8011C230.768 22.2391 233.996 26.4756 236.383 28.7618C238.77 31.0481 240.316 31.3842 241.829 31.5859C243.342 31.7877 244.821 31.8549 246.301 31.9222Z" fill="#AE967A"/>
<path fill-rule="evenodd" clip-rule="evenodd" d="M164.301 31.9222C158.72 35.4189 153.643 42.1432 147.928 44.2614C142.212 46.3796 136.363 47.1192 131.219 46.9847C126.075 46.8502 121.637 45.8416 116.762 43.0174C111.888 40.1932 106.072 32.3257 101.802 27.8876C97.5321 23.4496 94.3047 19.2132 91.9177 16.9269C89.5308 14.6406 87.9842 14.3046 86.4713 14.1028C84.9585 13.9011 83.4792 13.8338 82 13.7666C87.5809 10.2699 92.8591 4.85682 98.5744 2.7386C104.29 0.620375 110.14 -0.119193 115.283 0.0152982C120.427 0.149797 124.865 1.15836 129.74 3.9826C134.615 6.80684 140.229 13.3631 144.499 17.8011C148.768 22.2391 151.996 26.4756 154.383 28.7618C156.77 31.0481 158.316 31.3842 159.829 31.5859C161.342 31.7877 162.821 31.8549 164.301 31.9222Z" fill="#AE967A"/>
<path fill-rule="evenodd" clip-rule="evenodd" d="M82.3005 31.9222C76.7197 35.4189 71.6432 42.1432 65.9278 44.2614C60.2125 46.3796 54.3626 47.1192 49.2189 46.9847C44.0752 46.8502 39.6371 45.8416 34.7624 43.0174C29.8877 40.1932 24.0715 32.3257 19.8018 27.8876C15.5321 23.4496 12.3047 19.2132 9.91768 16.9269C7.53077 14.6406 5.98418 14.3046 4.47129 14.1028C2.95854 13.9011 1.4792 13.8338 0 13.7666C5.58087 10.2699 10.8591 4.85682 16.5744 2.7386C22.2898 0.620375 28.1396 -0.119193 33.2834 0.0152982C38.4271 0.149797 42.8651 1.15836 47.7399 3.9826C52.6146 6.80684 58.229 13.3631 62.4987 17.8011C66.7684 22.2391 69.9958 26.4756 72.3829 28.7618C74.7698 31.0481 76.3164 31.3842 77.8293 31.5859C79.342 31.7877 80.8214 31.8549 82.3005 31.9222Z" fill="#AE967A"/>
</svg>
