<svg width="247" height="47" viewBox="0 0 247 47" fill="none" xmlns="http://www.w3.org/2000/svg">
<path fill-rule="evenodd" clip-rule="evenodd" d="M0.000241089 31.9222C5.58111 35.4189 10.6576 42.1432 16.3729 44.2614C22.0883 46.3796 27.9382 47.1192 33.0819 46.9847C38.2256 46.8502 42.6636 45.8416 47.5384 43.0174C52.4131 40.1932 58.2293 32.3257 62.499 27.8876C66.7687 23.4496 69.9961 19.2132 72.3831 16.9269C74.77 14.6406 76.3166 14.3046 77.8295 14.1028C79.3422 13.9011 80.8216 13.8338 82.3008 13.7666C76.7199 10.2699 71.4417 4.85682 65.7263 2.7386C60.011 0.620375 54.1611 -0.119193 49.0174 0.0152982C43.8737 0.149797 39.4357 1.15836 34.5609 3.9826C29.6862 6.80684 24.0718 13.3631 19.802 17.8011C15.5323 22.2391 12.305 26.4756 9.91791 28.7618C7.53101 31.0481 5.98442 31.3842 4.47152 31.5859C2.95879 31.7877 1.47943 31.8549 0.000241089 31.9222V31.9222Z" fill="#AE967A"/>
<path fill-rule="evenodd" clip-rule="evenodd" d="M82.0002 31.9222C87.5811 35.4189 92.6576 42.1432 98.3729 44.2614C104.088 46.3796 109.938 47.1192 115.082 46.9847C120.226 46.8502 124.664 45.8416 129.538 43.0174C134.413 40.1932 140.229 32.3257 144.499 27.8876C148.769 23.4496 151.996 19.2132 154.383 16.9269C156.77 14.6406 158.317 14.3046 159.829 14.1028C161.342 13.9011 162.822 13.8338 164.301 13.7666C158.72 10.2699 153.442 4.85682 147.726 2.7386C142.011 0.620375 136.161 -0.119193 131.017 0.0152982C125.874 0.149797 121.436 1.15836 116.561 3.9826C111.686 6.80684 106.072 13.3631 101.802 17.8011C97.5323 22.2391 94.305 26.4756 91.9179 28.7618C89.531 31.0481 87.9844 31.3842 86.4715 31.5859C84.9588 31.7877 83.4794 31.8549 82.0002 31.9222V31.9222Z" fill="#AE967A"/>
<path fill-rule="evenodd" clip-rule="evenodd" d="M164 31.9222C169.581 35.4189 174.658 42.1432 180.373 44.2614C186.088 46.3796 191.938 47.1192 197.082 46.9847C202.226 46.8502 206.664 45.8416 211.538 43.0174C216.413 40.1932 222.229 32.3257 226.499 27.8876C230.769 23.4496 233.996 19.2132 236.383 16.9269C238.77 14.6406 240.317 14.3046 241.829 14.1028C243.342 13.9011 244.822 13.8338 246.301 13.7666C240.72 10.2699 235.442 4.85682 229.726 2.7386C224.011 0.620375 218.161 -0.119193 213.017 0.0152982C207.874 0.149797 203.436 1.15836 198.561 3.9826C193.686 6.80684 188.072 13.3631 183.802 17.8011C179.532 22.2391 176.305 26.4756 173.918 28.7618C171.531 31.0481 169.984 31.3842 168.472 31.5859C166.959 31.7877 165.479 31.8549 164 31.9222V31.9222Z" fill="#AE967A"/>
</svg>
