<svg width="1636" height="238" viewBox="0 0 1636 238" fill="none" xmlns="http://www.w3.org/2000/svg">
<mask id="path-1-outside-1_95_102" maskUnits="userSpaceOnUse" x="0" y="0" width="1636" height="238" fill="black">
<rect fill="white" width="1636" height="238"/>
<path d="M94.068 171.714H61.5734V231.5H2V6.5H98.2803C117.336 6.5 133.884 9.92857 147.925 16.7857C161.966 23.4286 172.797 33.0714 180.419 45.7143C188.042 58.1429 191.853 72.8214 191.853 89.75C191.853 106.036 188.242 120.286 181.021 132.5C174.001 144.5 163.871 153.929 150.633 160.786L196.065 231.5H132.279L94.068 171.714ZM131.678 89.75C131.678 79.25 128.568 71.1071 122.35 65.3214C116.132 59.5357 106.905 56.6429 94.6698 56.6429H61.5734V122.536H94.6698C106.905 122.536 116.132 119.75 122.35 114.179C128.568 108.393 131.678 100.25 131.678 89.75ZM365.829 187.786H276.77L260.222 231.5H199.445L292.416 6.5H351.087L444.358 231.5H382.378L365.829 187.786ZM348.379 140.857L321.3 68.8571L294.221 140.857H348.379ZM495.5 56.9643H430.812V6.5H619.461V56.9643H555.073V231.5H495.5V56.9643ZM810.747 182.321V231.5H641.655V6.5H806.836V55.6786H700.627V93.6071H794.199V141.179H700.627V182.321H810.747ZM976.196 56.9643H911.508V6.5H1100.16V56.9643H1035.77V231.5H976.196V56.9643ZM1322.73 6.5V231.5H1263.16V143.75H1181.92V231.5H1122.35V6.5H1181.92V91.0357H1263.16V6.5H1322.73ZM1364.76 6.5H1424.33V231.5H1364.76V6.5ZM1540.73 236C1523.68 236 1507.13 233.75 1491.08 229.25C1475.04 224.75 1462 218.75 1451.97 211.25L1471.53 164.321C1480.95 170.964 1491.89 176.321 1504.32 180.393C1516.76 184.464 1528.99 186.5 1541.03 186.5C1563.9 186.5 1575.33 180.393 1575.33 168.179C1575.33 161.75 1572.02 157.036 1565.4 154.036C1558.98 150.821 1548.55 147.5 1534.11 144.071C1518.26 140.429 1505.02 136.571 1494.39 132.5C1483.76 128.214 1474.64 121.464 1467.01 112.25C1459.39 103.036 1455.58 90.6071 1455.58 74.9643C1455.58 61.25 1459.09 48.9286 1466.11 38C1473.13 26.8571 1483.56 18.0714 1497.4 11.6429C1511.44 5.21429 1528.59 2 1548.85 2C1562.69 2 1576.33 3.71429 1589.77 7.14287C1603.21 10.3572 1615.04 15.1786 1625.27 21.6071L1606.92 68.8571C1586.86 57.2857 1567.41 51.5 1548.55 51.5C1536.72 51.5 1528.09 53.4286 1522.68 57.2857C1517.26 60.9286 1514.55 65.75 1514.55 71.75C1514.55 77.75 1517.76 82.25 1524.18 85.25C1530.6 88.25 1540.93 91.3571 1555.17 94.5714C1571.22 98.2143 1584.46 102.179 1594.89 106.464C1605.52 110.536 1614.64 117.179 1622.27 126.393C1630.09 135.393 1634 147.714 1634 163.357C1634 176.857 1630.49 189.071 1623.47 200C1616.45 210.929 1605.92 219.714 1591.88 226.357C1577.84 232.786 1560.79 236 1540.73 236Z"/>
</mask>
<path d="M94.068 171.714H61.5734V231.5H2V6.5H98.2803C117.336 6.5 133.884 9.92857 147.925 16.7857C161.966 23.4286 172.797 33.0714 180.419 45.7143C188.042 58.1429 191.853 72.8214 191.853 89.75C191.853 106.036 188.242 120.286 181.021 132.5C174.001 144.5 163.871 153.929 150.633 160.786L196.065 231.5H132.279L94.068 171.714ZM131.678 89.75C131.678 79.25 128.568 71.1071 122.35 65.3214C116.132 59.5357 106.905 56.6429 94.6698 56.6429H61.5734V122.536H94.6698C106.905 122.536 116.132 119.75 122.35 114.179C128.568 108.393 131.678 100.25 131.678 89.75ZM365.829 187.786H276.77L260.222 231.5H199.445L292.416 6.5H351.087L444.358 231.5H382.378L365.829 187.786ZM348.379 140.857L321.3 68.8571L294.221 140.857H348.379ZM495.5 56.9643H430.812V6.5H619.461V56.9643H555.073V231.5H495.5V56.9643ZM810.747 182.321V231.5H641.655V6.5H806.836V55.6786H700.627V93.6071H794.199V141.179H700.627V182.321H810.747ZM976.196 56.9643H911.508V6.5H1100.16V56.9643H1035.77V231.5H976.196V56.9643ZM1322.73 6.5V231.5H1263.16V143.75H1181.92V231.5H1122.35V6.5H1181.92V91.0357H1263.16V6.5H1322.73ZM1364.76 6.5H1424.33V231.5H1364.76V6.5ZM1540.73 236C1523.68 236 1507.13 233.75 1491.08 229.25C1475.04 224.75 1462 218.75 1451.97 211.25L1471.53 164.321C1480.95 170.964 1491.89 176.321 1504.32 180.393C1516.76 184.464 1528.99 186.5 1541.03 186.5C1563.9 186.5 1575.33 180.393 1575.33 168.179C1575.33 161.75 1572.02 157.036 1565.4 154.036C1558.98 150.821 1548.55 147.5 1534.11 144.071C1518.26 140.429 1505.02 136.571 1494.39 132.5C1483.76 128.214 1474.64 121.464 1467.01 112.25C1459.39 103.036 1455.58 90.6071 1455.58 74.9643C1455.58 61.25 1459.09 48.9286 1466.11 38C1473.13 26.8571 1483.56 18.0714 1497.4 11.6429C1511.44 5.21429 1528.59 2 1548.85 2C1562.69 2 1576.33 3.71429 1589.77 7.14287C1603.21 10.3572 1615.04 15.1786 1625.27 21.6071L1606.92 68.8571C1586.86 57.2857 1567.41 51.5 1548.55 51.5C1536.72 51.5 1528.09 53.4286 1522.68 57.2857C1517.26 60.9286 1514.55 65.75 1514.55 71.75C1514.55 77.75 1517.76 82.25 1524.18 85.25C1530.6 88.25 1540.93 91.3571 1555.17 94.5714C1571.22 98.2143 1584.46 102.179 1594.89 106.464C1605.52 110.536 1614.64 117.179 1622.27 126.393C1630.09 135.393 1634 147.714 1634 163.357C1634 176.857 1630.49 189.071 1623.47 200C1616.45 210.929 1605.92 219.714 1591.88 226.357C1577.84 232.786 1560.79 236 1540.73 236Z" stroke="#92E6D6" stroke-width="4" mask="url(#path-1-outside-1_95_102)"/>
</svg>
